<svg width="24" height="24" viewBox="0 0 24 24" fill="none" xmlns="http://www.w3.org/2000/svg">
<path d="M20 11H7.657H4C3.46957 11 2.96086 11.2107 2.58579 11.5858C2.21071 11.9609 2 12.4696 2 13C2 13.5304 2.21071 14.0391 2.58579 14.4142C2.96086 14.7893 3.46957 15 4 15H20C20.5304 15 21.0391 14.7893 21.4142 14.4142C21.7893 14.0391 22 13.5304 22 13C22 12.4696 21.7893 11.9609 21.4142 11.5858C21.0391 11.2107 20.5304 11 20 11Z" stroke="#5F8ADD" stroke-width="2" stroke-linecap="round" stroke-linejoin="round"/>
<path d="M3 15H21V17C21 17.7956 20.6839 18.5587 20.1213 19.1213C19.5587 19.6839 18.7956 20 18 20H6C5.20435 20 4.44129 19.6839 3.87868 19.1213C3.31607 18.5587 3 17.7956 3 17V15Z" fill="#5F8ADD" stroke="#5F8ADD" stroke-width="2" stroke-linecap="round" stroke-linejoin="round"/>
<path fill-rule="evenodd" clip-rule="evenodd" d="M5.46702 4.554C7.27002 3.457 9.58002 3 12 3C14.42 3 16.73 3.457 18.533 4.554C20.377 5.675 21.642 7.44 21.935 9.882C22.082 11.106 21.067 12 20 12H4.00002C2.93302 12 1.91802 11.106 2.06502 9.882C2.35802 7.44 3.62302 5.675 5.46702 4.554Z" fill="#5F8ADD"/>
</svg>
