<svg width="33" height="32" viewBox="0 0 33 32" fill="none" xmlns="http://www.w3.org/2000/svg">
<path d="M20.7501 19.9998L25.2554 15.4945C25.5181 15.2319 25.8299 15.0236 26.1731 14.8816C26.5162 14.7395 26.884 14.6664 27.2554 14.6665H27.4167C28.124 14.6665 28.8023 14.9475 29.3024 15.4476C29.8025 15.9477 30.0834 16.6259 30.0834 17.3332C30.0834 18.0404 29.8025 18.7187 29.3024 19.2188C28.8023 19.7189 28.124 19.9998 27.4167 19.9998H6.08341C5.37617 19.9998 4.69789 19.7189 4.1978 19.2188C3.6977 18.7187 3.41675 18.0404 3.41675 17.3332C3.41675 16.6259 3.6977 15.9477 4.1978 15.4476C4.69789 14.9475 5.37617 14.6665 6.08341 14.6665H12.1034C14.2248 14.6666 16.2593 15.5093 17.7594 17.0092L20.7501 19.9998ZM4.75008 19.9998H28.7501V22.6665C28.7501 23.7274 28.3287 24.7448 27.5785 25.4949C26.8284 26.2451 25.8109 26.6665 24.7501 26.6665H8.75008C7.68922 26.6665 6.6718 26.2451 5.92165 25.4949C5.17151 24.7448 4.75008 23.7274 4.75008 22.6665V19.9998Z" stroke="black" stroke-width="2" stroke-linecap="round" stroke-linejoin="round"/>
<path d="M16.75 5.33325C10.586 5.33325 5.50734 7.67459 4.82734 13.3333C4.73934 14.0666 5.34734 14.6666 6.08334 14.6666H27.4167C28.1527 14.6666 28.7607 14.0666 28.6727 13.3333C27.9927 7.67459 22.914 5.33325 16.75 5.33325Z" stroke="black" stroke-width="2" stroke-linecap="round" stroke-linejoin="round"/>
</svg>
