<svg width="17" height="16" viewBox="0 0 17 16" fill="none" xmlns="http://www.w3.org/2000/svg">
<path d="M8.38675 6L10.5001 8.10667V8C10.5001 7.46957 10.2894 6.96086 9.9143 6.58579C9.53922 6.21071 9.03051 6 8.50008 6H8.38675ZM5.52008 6.53333L6.55341 7.56667C6.52008 7.70667 6.50008 7.84667 6.50008 8C6.50008 8.53043 6.71079 9.03914 7.08587 9.41421C7.46094 9.78929 7.96965 10 8.50008 10C8.64675 10 8.79341 9.98 8.93341 9.94667L9.96675 10.98C9.52008 11.2 9.02675 11.3333 8.50008 11.3333C7.61603 11.3333 6.76818 10.9821 6.14306 10.357C5.51794 9.7319 5.16675 8.88406 5.16675 8C5.16675 7.47333 5.30008 6.98 5.52008 6.53333ZM1.83341 2.84667L3.35341 4.36667L3.65341 4.66667C2.55341 5.53333 1.68675 6.66667 1.16675 8C2.32008 10.9267 5.16675 13 8.50008 13C9.53341 13 10.5201 12.8 11.4201 12.44L11.7067 12.72L13.6534 14.6667L14.5001 13.82L2.68008 2M8.50008 4.66667C9.38414 4.66667 10.232 5.01786 10.8571 5.64298C11.4822 6.2681 11.8334 7.11595 11.8334 8C11.8334 8.42667 11.7467 8.84 11.5934 9.21333L13.5467 11.1667C14.5467 10.3333 15.3467 9.24 15.8334 8C14.6801 5.07333 11.8334 3 8.50008 3C7.56675 3 6.67341 3.16667 5.83341 3.46667L7.28008 4.9C7.66008 4.75333 8.06675 4.66667 8.50008 4.66667Z" fill="black"/>
</svg>
