<svg width="17" height="16" viewBox="0 0 17 16" fill="none" xmlns="http://www.w3.org/2000/svg">
<path d="M2 14C1.86739 14 1.74021 13.9473 1.64645 13.8536C1.55268 13.7598 1.5 13.6326 1.5 13.5V2.5C1.5 2.36739 1.55268 2.24021 1.64645 2.14645C1.74021 2.05268 1.86739 2 2 2H15C15.1326 2 15.2598 2.05268 15.3536 2.14645C15.4473 2.24021 15.5 2.36739 15.5 2.5V13.5C15.5 13.6326 15.4473 13.7598 15.3536 13.8536C15.2598 13.9473 15.1326 14 15 14H2ZM6.93 10.43L5.853 9.353C5.75924 9.25926 5.63208 9.20661 5.4995 9.20661C5.36692 9.20661 5.23976 9.25926 5.146 9.353L2.5 12.001H14.667L10.884 7.461C10.8371 7.40455 10.7783 7.35913 10.7119 7.32796C10.6454 7.29679 10.5729 7.28062 10.4995 7.28062C10.4261 7.28062 10.3536 7.29679 10.2871 7.32796C10.2207 7.35913 10.1619 7.40455 10.115 7.461L7.668 10.397C7.62349 10.4504 7.56833 10.4939 7.50605 10.5248C7.44377 10.5557 7.37573 10.5732 7.30628 10.5763C7.23683 10.5794 7.1675 10.568 7.10271 10.5428C7.03792 10.5176 6.9791 10.4792 6.93 10.43ZM4.5 6C4.50007 6.19705 4.53894 6.39215 4.61441 6.57418C4.68988 6.7562 4.80046 6.92158 4.93984 7.06087C5.07922 7.20016 5.24467 7.31063 5.42675 7.38597C5.60882 7.46132 5.80395 7.50007 6.001 7.5C6.19805 7.49993 6.39315 7.46106 6.57518 7.38559C6.7572 7.31012 6.92258 7.19954 7.06187 7.06016C7.20116 6.92078 7.31163 6.75533 7.38697 6.57325C7.46232 6.39118 7.50107 6.19605 7.501 5.999C7.50087 5.60104 7.34265 5.21944 7.06116 4.93813C6.77967 4.65683 6.39796 4.49887 6 4.499C5.60204 4.49913 5.22044 4.65735 4.93913 4.93884C4.65783 5.22033 4.49987 5.60204 4.5 6Z" fill="black"/>
</svg>
