<svg width="33" height="32" viewBox="0 0 33 32" fill="none" xmlns="http://www.w3.org/2000/svg">
<path d="M29.3999 19.5532L27.353 17.8032C27.4499 17.2094 27.4999 16.6032 27.4999 15.9969C27.4999 15.3907 27.4499 14.7844 27.353 14.1907L29.3999 12.4407C29.5543 12.3085 29.6648 12.1325 29.7167 11.936C29.7686 11.7395 29.7595 11.5319 29.6905 11.3407L29.6624 11.2594C29.0989 9.68449 28.2551 8.22452 27.1718 6.95005L27.1155 6.88442C26.9841 6.7299 26.809 6.61882 26.6132 6.56582C26.4173 6.51283 26.2101 6.5204 26.0187 6.58755L23.478 7.49067C22.5405 6.72192 21.4937 6.11567 20.3624 5.69067L19.8718 3.03442C19.8348 2.83456 19.7378 2.65068 19.5938 2.50723C19.4498 2.36378 19.2655 2.26754 19.0655 2.2313L18.9812 2.21567C17.353 1.92192 15.6405 1.92192 14.0124 2.21567L13.928 2.2313C13.728 2.26754 13.5438 2.36378 13.3998 2.50723C13.2558 2.65068 13.1588 2.83456 13.1218 3.03442L12.628 5.70317C11.5058 6.12828 10.4608 6.73421 9.53428 7.49692L6.97491 6.58755C6.78355 6.51987 6.57613 6.51202 6.38021 6.56505C6.18428 6.61808 6.00913 6.72947 5.87803 6.88442L5.82178 6.95005C4.73973 8.22543 3.89607 9.68516 3.33116 11.2594L3.30303 11.3407C3.16241 11.7313 3.27803 12.1688 3.59366 12.4407L5.66553 14.2094C5.56866 14.7969 5.52178 15.3969 5.52178 15.9938C5.52178 16.5938 5.56866 17.1938 5.66553 17.7782L3.59366 19.5469C3.43927 19.6791 3.32877 19.8551 3.27686 20.0516C3.22494 20.2481 3.23407 20.4557 3.30303 20.6469L3.33116 20.7282C3.89678 22.3032 4.73428 23.7563 5.82178 25.0375L5.87803 25.1032C6.00945 25.2577 6.18461 25.3688 6.38042 25.4218C6.57622 25.4748 6.78349 25.4672 6.97491 25.4L9.53428 24.4907C10.4655 25.2563 11.5062 25.8625 12.628 26.2844L13.1218 28.9532C13.1588 29.153 13.2558 29.3369 13.3998 29.4804C13.5438 29.6238 13.728 29.7201 13.928 29.7563L14.0124 29.7719C15.6555 30.0672 17.3381 30.0672 18.9812 29.7719L19.0655 29.7563C19.2655 29.7201 19.4498 29.6238 19.5938 29.4804C19.7378 29.3369 19.8348 29.153 19.8718 28.9532L20.3624 26.2969C21.4932 25.873 22.546 25.2648 23.478 24.4969L26.0187 25.4C26.21 25.4677 26.4174 25.4756 26.6134 25.4226C26.8093 25.3695 26.9844 25.2581 27.1155 25.1032L27.1718 25.0375C28.2593 23.7532 29.0968 22.3032 29.6624 20.7282L29.6905 20.6469C29.8312 20.2625 29.7155 19.825 29.3999 19.5532ZM25.1343 14.5594C25.2124 15.0313 25.253 15.5157 25.253 16C25.253 16.4844 25.2124 16.9688 25.1343 17.4407L24.928 18.6938L27.2624 20.6907C26.9085 21.506 26.4618 22.2777 25.9312 22.9907L23.0312 21.9625L22.0499 22.7688C21.303 23.3813 20.4718 23.8626 19.5718 24.2001L18.3812 24.6469L17.8218 27.6782C16.9392 27.7782 16.0481 27.7782 15.1655 27.6782L14.6062 24.6407L13.4249 24.1875C12.5343 23.85 11.7062 23.3688 10.9655 22.7594L9.98428 21.9501L7.06553 22.9875C6.53428 22.2719 6.09053 21.5 5.73428 20.6875L8.09366 18.6719L7.89053 17.4219C7.81553 16.9563 7.77491 16.475 7.77491 16C7.77491 15.5219 7.81241 15.0438 7.89053 14.5782L8.09366 13.3282L5.73428 11.3125C6.08741 10.4969 6.53428 9.72817 7.06553 9.01255L9.98428 10.05L10.9655 9.24067C11.7062 8.6313 12.5343 8.15005 13.4249 7.81255L14.6093 7.36567L15.1687 4.32817C16.0468 4.22817 16.9437 4.22817 17.8249 4.32817L18.3843 7.35942L19.5749 7.8063C20.4718 8.1438 21.3062 8.62505 22.053 9.23755L23.0343 10.0438L25.9343 9.01567C26.4655 9.7313 26.9093 10.5032 27.2655 11.3157L24.9312 13.3125L25.1343 14.5594ZM16.4999 10.1875C13.4624 10.1875 10.9999 12.65 10.9999 15.6875C10.9999 18.725 13.4624 21.1875 16.4999 21.1875C19.5374 21.1875 21.9999 18.725 21.9999 15.6875C21.9999 12.65 19.5374 10.1875 16.4999 10.1875ZM18.9749 18.1625C18.6503 18.4881 18.2645 18.7463 17.8398 18.9222C17.415 19.0981 16.9596 19.1883 16.4999 19.1875C15.5655 19.1875 14.6874 18.8219 14.0249 18.1625C13.6994 17.8379 13.4412 17.4521 13.2653 17.0274C13.0894 16.6026 12.9992 16.1473 12.9999 15.6875C12.9999 14.7532 13.3655 13.875 14.0249 13.2125C14.6874 12.55 15.5655 12.1875 16.4999 12.1875C17.4343 12.1875 18.3124 12.55 18.9749 13.2125C19.3005 13.5372 19.5586 13.923 19.7345 14.3477C19.9104 14.7725 20.0006 15.2278 19.9999 15.6875C19.9999 16.6219 19.6343 17.5 18.9749 18.1625Z" fill="black"/>
</svg>
