<svg width="16" height="16" viewBox="0 0 16 16" fill="none" xmlns="http://www.w3.org/2000/svg">
<path d="M13.9999 13.9999L11.1046 11.1046M11.1046 11.1046C11.5998 10.6093 11.9927 10.0213 12.2607 9.37426C12.5287 8.72717 12.6667 8.03363 12.6667 7.33323C12.6667 6.63283 12.5287 5.93928 12.2607 5.2922C11.9927 4.64511 11.5998 4.05715 11.1046 3.56189C10.6093 3.06663 10.0213 2.67377 9.37426 2.40574C8.72717 2.13771 8.03363 1.99976 7.33323 1.99976C6.63283 1.99976 5.93928 2.13771 5.2922 2.40574C4.64511 2.67377 4.05715 3.06663 3.56189 3.56189C2.56167 4.56211 1.99976 5.9187 1.99976 7.33323C1.99976 8.74775 2.56167 10.1043 3.56189 11.1046C4.56211 12.1048 5.9187 12.6667 7.33323 12.6667C8.74775 12.6667 10.1043 12.1048 11.1046 11.1046Z" stroke="black" stroke-width="1.5" stroke-linecap="round" stroke-linejoin="round"/>
</svg>
